HIERARCHY
ROOT Hips
{
 OFFSET 0.000000 0.000000 0.000000
 CHANNELS 6 Xposition Yposition Zposition Yrotation Xrotation Zrotation
 JOINT Chest
 {
  OFFSET 0.000000 9.585900 0.002600
  CHANNELS 3 Yrotation Xrotation Zrotation
  JOINT Chest2
  {
   OFFSET 0.000000 9.601200 -0.005300
   CHANNELS 3 Yrotation Xrotation Zrotation
   JOINT Chest3
   {
    OFFSET 0.000000 9.561800 0.000000
    CHANNELS 3 Yrotation Xrotation Zrotation
    JOINT Chest4
    {
     OFFSET 0.000000 9.552100 0.000000
     CHANNELS 3 Yrotation Xrotation Zrotation
     JOINT Neck
     {
      OFFSET 0.000000 14.453000 0.000000
      CHANNELS 3 Yrotation Xrotation Zrotation
      JOINT Head
      {
       OFFSET 0.000000 8.936500 -0.011300
       CHANNELS 3 Yrotation Xrotation Zrotation
       End Site
       {
        OFFSET 0.000000 17.073600 -0.006000
       }
      }
     }
     JOINT RightCollar
     {
      OFFSET -2.921100 9.558500 0.000000
      CHANNELS 3 Yrotation Xrotation Zrotation
      JOINT RightShoulder
      {
       OFFSET -13.519700 0.000000 0.000000
       CHANNELS 3 Yrotation Xrotation Zrotation
       JOINT RightElbow
       {
        OFFSET 0.000000 -29.696600 0.000000
        CHANNELS 3 Yrotation Xrotation Zrotation
        JOINT RightWrist
        {
         OFFSET 0.000000 -24.004700 0.000000
         CHANNELS 3 Yrotation Xrotation Zrotation
         End Site
         {
          OFFSET 0.000000 -17.728500 0.000000
         }
        }
       }
      }
     }
     JOINT LeftCollar
     {
      OFFSET 2.921100 9.558500 0.000000
      CHANNELS 3 Yrotation Xrotation Zrotation
      JOINT LeftShoulder
      {
       OFFSET 13.519700 0.000000 0.000000
       CHANNELS 3 Yrotation Xrotation Zrotation
       JOINT LeftElbow
       {
        OFFSET 0.000000 -29.696600 0.000000
        CHANNELS 3 Yrotation Xrotation Zrotation
        JOINT LeftWrist
        {
         OFFSET 0.000000 -24.004700 0.000000
         CHANNELS 3 Yrotation Xrotation Zrotation
         End Site
         {
          OFFSET 0.000000 -17.728500 0.000000
         }
        }
       }
      }
     }
    }
   }
  }
 }
 JOINT RightHip
 {
  OFFSET -7.771700 -0.012900 -0.001300
  CHANNELS 3 Yrotation Xrotation Zrotation
  JOINT RightKnee
  {
   OFFSET 0.000000 -40.869800 0.001200
   CHANNELS 3 Yrotation Xrotation Zrotation
   JOINT RightAnkle
   {
    OFFSET 0.000000 -39.717900 0.002100
    CHANNELS 3 Yrotation Xrotation Zrotation
    JOINT RightToe
    {
     OFFSET 0.000000 -4.965400 11.033500
     CHANNELS 3 Yrotation Xrotation Zrotation
     End Site
     {
      OFFSET 0.000000 -1.423100 5.872300
     }
    }
   }
  }
 }
 JOINT LeftHip
 {
  OFFSET 7.771700 -0.012900 -0.001300
  CHANNELS 3 Yrotation Xrotation Zrotation
  JOINT LeftKnee
  {
   OFFSET 0.000000 -40.869800 0.001200
   CHANNELS 3 Yrotation Xrotation Zrotation
   JOINT LeftAnkle
   {
    OFFSET 0.000000 -39.717900 0.002100
    CHANNELS 3 Yrotation Xrotation Zrotation
    JOINT LeftToe
    {
     OFFSET 0.000000 -4.965400 11.033500
     CHANNELS 3 Yrotation Xrotation Zrotation
     End Site
     {
      OFFSET 0.000000 -1.423100 5.872300
     }
    }
   }
  }
 }
}
MOTION
Frames: 9
Frame Time: 0.008333
0.000000 85.388000 0.000000 0.000000 -5.767877 0.000000 0.000000 11.653817 0.000000 0.000000 -5.885947 0.000000 0.000000 -0.000000 0.000000 0.000000 -0.000000 0.000000 0.000000 12.528835 0.000000 0.000000 0.711642 0.000000 0.000000 -0.000000 0.000000 0.000000 0.000000 -90.000000 0.000000 -2.309062 0.000000 0.000000 2.309062 0.000000 0.000000 -0.000000 0.000000 0.000000 -0.000000 90.000000 0.000000 -2.309062 0.000000 0.000000 2.309062 0.000000 0.000000 8.520406 0.000000 0.000000 1.905762 0.000000 -0.000000 -4.658285 0.000000 0.000000 -0.000000 0.000000 0.000000 8.520406 0.000000 0.000000 1.905762 0.000000 -0.000000 -4.658285 0.000000 0.000000 -0.000000 0.000000
-107.349147 51.755468 -41.820798 178.276348 -17.613499 0.082740 -3.633572 10.217047 1.289467 -0.254361 0.696414 0.146988 -0.431332 1.195444 0.253071 -3.338058 9.500762 1.761104 -4.702459 20.137628 -0.496725 -4.913000 -4.286319 0.546302 4.622190 16.594122 10.683601 9.945908 -9.112607 -38.703439 139.568138 -40.614939 174.875766 -6.441162 1.659318 11.736076 -3.810680 15.787385 -15.248750 -24.205025 -0.879222 31.202753 -146.437430 -57.541271 -173.747119 14.641657 9.479100 -0.614024 -16.996145 -64.861400 8.837707 -85.650828 79.921080 -93.535851 -3.723606 -11.517060 6.729311 0.175698 -0.842620 0.099753 13.340883 -62.781239 -12.095796 19.012129 83.458840 24.577870 -2.789140 -8.939762 0.615823 0.188584 0.335863 0.077780
-107.348480 51.752775 -41.829052 178.264931 -17.548067 0.079132 -3.619455 10.167431 1.304410 -0.252978 0.689977 0.146856 -0.423927 1.184725 0.255420 -3.337533 9.458062 1.770358 -4.668843 20.127826 -0.496306 -4.926481 -4.257251 0.539009 4.602854 16.571933 10.719156 9.919774 -9.094020 -38.705805 139.581199 -40.577911 174.909667 -6.440783 1.665726 11.769807 -3.800346 15.766393 -15.237617 -24.220958 -0.881662 31.195941 -146.452549 -57.567680 -173.730443 14.641682 9.502319 -0.607654 -17.020318 -64.921912 8.881029 -85.670703 79.917574 -93.550277 -3.720697 -11.503958 6.726279 0.177155 -0.858633 0.103295 13.377599 -62.850205 -12.120299 18.978778 83.482496 24.547386 -2.778286 -8.954342 0.622152 0.186706 0.335943 0.073571
-107.348088 51.750228 -41.841585 178.265033 -17.490026 0.076630 -3.604936 10.140561 1.324918 -0.258551 0.667761 0.138947 -0.421500 1.174950 0.258029 -3.336599 9.415432 1.778998 -4.652060 20.135584 -0.499111 -4.925082 -4.244316 0.530654 4.589556 16.583753 10.729786 9.869146 -9.161320 -38.662188 139.610987 -40.541540 174.985462 -6.440843 1.670847 11.800545 -3.799109 15.775999 -15.243435 -24.238749 -0.902056 31.211951 -146.471576 -57.606473 -173.716656 14.643820 9.496595 -0.596539 -17.041927 -64.977200 8.909330 -85.739342 79.899255 -93.615233 -3.703026 -11.494159 6.722804 0.178590 -0.874207 0.106396 13.425278 -62.909431 -12.165173 18.963212 83.508292 24.541401 -2.768905 -8.970090 0.628831 0.178024 0.337900 0.072034
-107.348883 51.749131 -41.862241 178.302072 -17.468469 0.075757 -3.637910 10.130642 1.321850 -0.252948 0.664652 0.142125 -0.423390 1.165232 0.255706 -3.339805 9.394303 1.779997 -4.636255 20.127450 -0.494293 -4.895138 -4.239808 0.521876 4.584195 16.589336 10.735255 9.844773 -9.191293 -38.641288 139.609345 -40.363345 174.976817 -6.444393 1.690623 11.875247 -3.796777 15.779611 -15.246358 -24.251461 -0.924625 31.230345 -146.488479 -57.630483 -173.700825 14.647625 9.481175 -0.604467 -17.022857 -64.998401 8.859552 -85.930286 79.871799 -93.797404 -3.679479 -11.514968 6.731344 0.162352 -0.870855 0.101721 13.427773 -62.929911 -12.203211 18.998989 83.533253 24.577979 -2.763913 -8.988018 0.634339 0.175200 0.334532 0.069953
-107.347938 51.745988 -41.879321 178.311101 -17.415914 0.078461 -3.642985 10.092707 1.327454 -0.247685 0.668993 0.147665 -0.426600 1.144681 0.249562 -3.341893 9.341256 1.787972 -4.636522 20.154742 -0.501288 -4.861473 -4.233431 0.519659 4.577253 16.628220 10.735225 9.822795 -9.219227 -38.620954 139.622544 -40.221242 174.976184 -6.443289 1.699912 11.914569 -3.797045 15.814235 -15.258233 -24.264234 -0.962632 31.258848 -146.525070 -57.638915 -173.659614 14.635932 9.483713 -0.613390 -17.038218 -65.050157 8.870282 -86.052780 79.863103 -93.915186 -3.684800 -11.516480 6.727519 0.166536 -0.882340 0.108307 13.462151 -62.982209 -12.247078 19.064108 83.558706 24.645607 -2.758927 -9.011312 0.637308 0.170003 0.337510 0.069350
-107.344560 51.741749 -41.895218 178.301410 -17.352052 0.079944 -3.627747 10.047209 1.343992 -0.248139 0.659587 0.145930 -0.428144 1.134865 0.244886 -3.346361 9.289203 1.800752 -4.642338 20.185681 -0.511675 -4.858906 -4.215538 0.508349 4.577972 16.649867 10.741299 9.796780 -9.227236 -38.608486 139.656074 -40.093904 174.974482 -6.433142 1.706829 11.929348 -3.784068 15.829670 -15.269655 -24.278215 -0.998828 31.286925 -146.559634 -57.604019 -173.611652 14.634424 9.538466 -0.626313 -17.049203 -65.112073 8.895285 -86.142105 79.861135 -93.995246 -3.676406 -11.510992 6.719882 0.165558 -0.884725 0.108584 13.508272 -63.048535 -12.281776 19.122497 83.589084 24.708073 -2.753174 -9.036832 0.638935 0.162029 0.343274 0.068731
-107.338278 51.737730 -41.913500 178.284601 -17.302780 0.075655 -3.604907 10.015333 1.367245 -0.250377 0.647545 0.140653 -0.427719 1.129046 0.244873 -3.352577 9.253100 1.811179 -4.648346 20.212635 -0.525442 -4.860241 -4.203236 0.506700 4.599656 16.623756 10.758713 9.755852 -9.185267 -38.610279 139.696612 -39.954663 174.947321 -6.424236 1.717300 11.932967 -3.776538 15.828963 -15.273103 -24.279431 -1.011525 31.287304 -146.582677 -57.632082 -173.601926 14.642784 9.478487 -0.630298 -17.063497 -65.156955 8.937644 -86.236075 79.853980 -94.081324 -3.676715 -11.503401 6.710705 0.174768 -0.869955 0.104445 13.551905 -63.103725 -12.299667 19.179637 83.625261 24.774938 -2.749213 -9.058677 0.636864 0.157617 0.336791 0.069974
-107.330708 51.732978 -41.930623 178.294254 -17.248134 0.064923 -3.607884 9.975520 1.387569 -0.252420 0.638863 0.137036 -0.419182 1.131837 0.259607 -3.368269 9.210657 1.808612 -4.656936 20.237570 -0.540290 -4.899240 -4.173914 0.512921 4.607468 16.632162 10.756592 9.731765 -9.179915 -38.604655 139.751159 -39.802726 174.913815 -6.420487 1.735269 11.932307 -3.763579 15.819567 -15.280205 -24.284391 -0.988521 31.271061 -146.558092 -57.504739 -173.577994 14.652954 9.458963 -0.660890 -17.120190 -65.206658 9.006822 -86.379444 79.843136 -94.221968 -3.712252 -11.509374 6.697986 0.201689 -0.867848 0.117806 13.560080 -63.164345 -12.311396 19.271827 83.653314 24.871292 -2.745491 -9.086436 0.637463 0.149263 0.341641 0.066209
